<svg xmlns="http://www.w3.org/2000/svg" width="96" height="132" viewBox="0 0 96 132"><g fill="none" stroke="#171c25"><circle cx="19" cy="26" r="12" stroke-width="3.8"/><circle cx="19" cy="26" r="7" stroke-width="2.4"/><circle cx="19" cy="26" r="3" stroke-width="2"/></g><g fill="none" stroke="#171c25"><circle cx="48" cy="26" r="12" stroke-width="3.8"/><circle cx="48" cy="26" r="7" stroke-width="2.4"/><circle cx="48" cy="26" r="3" stroke-width="2"/></g><g fill="none" stroke="#171c25"><circle cx="77" cy="26" r="12" stroke-width="3.8"/><circle cx="77" cy="26" r="7" stroke-width="2.4"/><circle cx="77" cy="26" r="3" stroke-width="2"/></g><g fill="none" stroke="#b51d27"><circle cx="19" cy="66" r="12" stroke-width="3.8"/><circle cx="19" cy="66" r="7" stroke-width="2.4"/><circle cx="19" cy="66" r="3" stroke-width="2"/></g><g fill="none" stroke="#b51d27"><circle cx="48" cy="66" r="12" stroke-width="3.8"/><circle cx="48" cy="66" r="7" stroke-width="2.4"/><circle cx="48" cy="66" r="3" stroke-width="2"/></g><g fill="none" stroke="#b51d27"><circle cx="77" cy="66" r="12" stroke-width="3.8"/><circle cx="77" cy="66" r="7" stroke-width="2.4"/><circle cx="77" cy="66" r="3" stroke-width="2"/></g><g fill="none" stroke="#07512f"><circle cx="19" cy="106" r="12" stroke-width="3.8"/><circle cx="19" cy="106" r="7" stroke-width="2.4"/><circle cx="19" cy="106" r="3" stroke-width="2"/></g><g fill="none" stroke="#07512f"><circle cx="48" cy="106" r="12" stroke-width="3.8"/><circle cx="48" cy="106" r="7" stroke-width="2.4"/><circle cx="48" cy="106" r="3" stroke-width="2"/></g><g fill="none" stroke="#07512f"><circle cx="77" cy="106" r="12" stroke-width="3.8"/><circle cx="77" cy="106" r="7" stroke-width="2.4"/><circle cx="77" cy="106" r="3" stroke-width="2"/></g></svg>