<svg xmlns="http://www.w3.org/2000/svg" width="768" height="1096" viewBox="0 0 96 137.14"><g transform="translate(0 2.57)"><g fill="#124d2c"><rect x="43" y="11" width="10" height="40" rx="5"/><ellipse cx="48" cy="16.6" rx="8" ry="5.6000000000000005"/><ellipse cx="48" cy="31" rx="8" ry="5.6000000000000005"/><ellipse cx="48" cy="45.4" rx="8" ry="5.6000000000000005"/><path d="M48 15.399999999999999v31.200000000000003" stroke="#f8f5e9" stroke-width="1.8" stroke-linecap="round"/></g><g fill="#124d2c"><rect x="22" y="78" width="10" height="42" rx="5"/><ellipse cx="27" cy="83.88" rx="8" ry="5.880000000000001"/><ellipse cx="27" cy="99" rx="8" ry="5.880000000000001"/><ellipse cx="27" cy="114.12" rx="8" ry="5.880000000000001"/><path d="M27 82.62v32.76" stroke="#f8f5e9" stroke-width="1.8" stroke-linecap="round"/></g><g fill="#124d2c"><rect x="64" y="78" width="10" height="42" rx="5"/><ellipse cx="69" cy="83.88" rx="8" ry="5.880000000000001"/><ellipse cx="69" cy="99" rx="8" ry="5.880000000000001"/><ellipse cx="69" cy="114.12" rx="8" ry="5.880000000000001"/><path d="M69 82.62v32.76" stroke="#f8f5e9" stroke-width="1.8" stroke-linecap="round"/></g></g></svg>